<svg width="381" height="31" viewBox="0 0 381 31" fill="none" xmlns="http://www.w3.org/2000/svg">
<path d="M8.39104 12.8928L8.57104 11.1828H8.48104L7.61704 12.7308L5.78104 15.8088H5.33104L3.40504 12.7128L2.57704 11.1828H2.48704L2.70304 12.8748V21.2628H1.24504V8.66282H2.63104L5.61904 13.4508H5.65504L8.53504 8.66282H9.88504V21.2628H8.39104V12.8928ZM12.884 8.66282H20.282V9.99482H14.378V14.1168H19.832V15.4488H14.378V19.9308H20.372V21.2628H12.884V8.66282ZM25.279 13.3788L24.307 11.5608H24.235L24.415 13.3788V21.2628H23.011V8.66282H23.983L29.059 16.5108L29.995 18.2388H30.085L29.887 16.5108V8.66282H31.291V21.2628H30.319L25.279 13.3788ZM40.8239 8.66282H42.2639V17.0688C42.2639 17.8248 42.1619 18.4788 41.9579 19.0308C41.7659 19.5828 41.4899 20.0388 41.1299 20.3988C40.7699 20.7468 40.3319 21.0048 39.8159 21.1728C39.2999 21.3408 38.7299 21.4248 38.1059 21.4248C36.6179 21.4248 35.4959 21.0888 34.7399 20.4168C33.9959 19.7448 33.6239 18.7248 33.6239 17.3568V8.66282H35.1179V16.6548C35.1179 17.2908 35.1779 17.8308 35.2979 18.2748C35.4299 18.7068 35.6159 19.0608 35.8559 19.3368C36.1079 19.6008 36.4199 19.7928 36.7919 19.9128C37.1759 20.0328 37.6199 20.0928 38.1239 20.0928C39.0959 20.0928 39.7859 19.8288 40.1939 19.3008C40.6139 18.7608 40.8239 17.8788 40.8239 16.6548V8.66282Z" fill="#2A2426"/>
<rect x="95.165" y="14.2628" width="284.98" height="2" fill="#2A2426"/>
</svg>
