<svg width="381" height="31" viewBox="0 0 381 31" fill="none" xmlns="http://www.w3.org/2000/svg">
<path d="M8.40904 10.0308C8.20504 9.94682 7.97704 9.88682 7.72504 9.85082C7.48504 9.80282 7.19104 9.77882 6.84304 9.77882C6.35104 9.77882 5.86504 9.86882 5.38504 10.0488C4.91704 10.2288 4.49704 10.5228 4.12504 10.9308C3.76504 11.3388 3.47104 11.8728 3.24304 12.5328C3.02704 13.1928 2.91904 14.0028 2.91904 14.9628C2.91904 15.8268 3.01504 16.5828 3.20704 17.2308C3.41104 17.8788 3.68704 18.4188 4.03504 18.8508C4.39504 19.2828 4.82104 19.6068 5.31304 19.8228C5.81704 20.0388 6.37504 20.1468 6.98704 20.1468C7.29904 20.1468 7.58704 20.1228 7.85104 20.0748C8.12704 20.0148 8.37904 19.9368 8.60704 19.8408V18.0408H9.93904V20.4708L9.95704 20.5068C9.59704 20.7828 9.14104 21.0168 8.58904 21.2088C8.03704 21.3888 7.36504 21.4788 6.57304 21.4788C5.81704 21.4788 5.11504 21.3528 4.46704 21.1008C3.83104 20.8368 3.27904 20.4408 2.81104 19.9128C2.34304 19.3848 1.97704 18.7128 1.71304 17.8968C1.46104 17.0688 1.33504 16.0908 1.33504 14.9628C1.33504 13.7868 1.47904 12.7908 1.76704 11.9748C2.05504 11.1468 2.44504 10.4748 2.93704 9.95882C3.42904 9.43082 3.99904 9.04682 4.64704 8.80682C5.30704 8.56682 6.00904 8.44682 6.75304 8.44682C7.16104 8.44682 7.51504 8.46482 7.81504 8.50082C8.11504 8.52482 8.37904 8.56682 8.60704 8.62682C8.83504 8.67482 9.03304 8.74082 9.20104 8.82482C9.38104 8.90882 9.55504 9.00482 9.72304 9.11282H9.74104V11.9568H8.40904V10.0308ZM11.822 14.9628C11.822 12.8748 12.188 11.2668 12.92 10.1388C13.664 9.01082 14.804 8.44682 16.34 8.44682C17.18 8.44682 17.888 8.60282 18.464 8.91482C19.052 9.22682 19.526 9.67082 19.886 10.2468C20.246 10.8108 20.504 11.4948 20.66 12.2988C20.816 13.0908 20.894 13.9788 20.894 14.9628C20.894 17.0508 20.522 18.6588 19.778 19.7868C19.046 20.9148 17.9 21.4788 16.34 21.4788C15.512 21.4788 14.81 21.3228 14.234 21.0108C13.658 20.6988 13.19 20.2608 12.83 19.6968C12.47 19.1208 12.212 18.4368 12.056 17.6448C11.9 16.8408 11.822 15.9468 11.822 14.9628ZM13.406 14.9628C13.406 15.6588 13.448 16.3188 13.532 16.9428C13.628 17.5668 13.79 18.1188 14.018 18.5988C14.246 19.0668 14.546 19.4448 14.918 19.7328C15.29 20.0088 15.764 20.1468 16.34 20.1468C17.372 20.1468 18.122 19.7268 18.59 18.8868C19.07 18.0468 19.31 16.7388 19.31 14.9628C19.31 14.2788 19.262 13.6248 19.166 13.0008C19.082 12.3648 18.926 11.8128 18.698 11.3448C18.47 10.8648 18.164 10.4868 17.78 10.2108C17.396 9.92282 16.916 9.77882 16.34 9.77882C15.32 9.77882 14.576 10.2048 14.108 11.0568C13.64 11.8968 13.406 13.1988 13.406 14.9628ZM25.279 13.3788L24.307 11.5608H24.235L24.415 13.3788V21.2628H23.011V8.66282H23.983L29.059 16.5108L29.995 18.2388H30.085L29.887 16.5108V8.66282H31.291V21.2628H30.319L25.279 13.3788ZM33.2639 8.66282H42.6239V11.9568H41.2919V9.99482H38.6819V19.9308H40.6619V21.2628H35.2079V19.9308H37.1879V9.99482H34.5959V11.9568H33.2639V8.66282ZM51.0949 17.7708H46.2529L45.1009 21.2628H43.6249L47.8369 8.66282H49.6009L53.8489 21.2628H52.2829L51.0949 17.7708ZM46.7209 16.4748H50.6809L48.8269 10.5528H48.6109L46.7209 16.4748ZM54.8499 8.66282H64.2099V11.9568H62.8779V9.99482H60.2679V19.9308H62.2479V21.2628H56.7939V19.9308H58.7739V9.99482H56.1819V11.9568H54.8499V8.66282ZM65.7869 14.9628C65.7869 12.8748 66.1529 11.2668 66.8849 10.1388C67.6289 9.01082 68.7689 8.44682 70.3049 8.44682C71.1449 8.44682 71.8529 8.60282 72.4289 8.91482C73.0169 9.22682 73.4909 9.67082 73.8509 10.2468C74.2109 10.8108 74.4689 11.4948 74.6249 12.2988C74.7809 13.0908 74.8589 13.9788 74.8589 14.9628C74.8589 17.0508 74.4869 18.6588 73.7429 19.7868C73.0109 20.9148 71.8649 21.4788 70.3049 21.4788C69.4769 21.4788 68.7749 21.3228 68.1989 21.0108C67.6229 20.6988 67.1549 20.2608 66.7949 19.6968C66.4349 19.1208 66.1769 18.4368 66.0209 17.6448C65.8649 16.8408 65.7869 15.9468 65.7869 14.9628ZM67.3709 14.9628C67.3709 15.6588 67.4129 16.3188 67.4969 16.9428C67.5929 17.5668 67.7549 18.1188 67.9829 18.5988C68.2109 19.0668 68.5109 19.4448 68.8829 19.7328C69.2549 20.0088 69.7289 20.1468 70.3049 20.1468C71.3369 20.1468 72.0869 19.7268 72.5549 18.8868C73.0349 18.0468 73.2749 16.7388 73.2749 14.9628C73.2749 14.2788 73.2269 13.6248 73.1309 13.0008C73.0469 12.3648 72.8909 11.8128 72.6629 11.3448C72.4349 10.8648 72.1289 10.4868 71.7449 10.2108C71.3609 9.92282 70.8809 9.77882 70.3049 9.77882C69.2849 9.77882 68.5409 10.2048 68.0729 11.0568C67.6049 11.8968 67.3709 13.1988 67.3709 14.9628Z" fill="#2A2426"/>
<rect x="127.33" y="14.1456" width="253" height="2" fill="#2A2426"/>
</svg>
